<?xml version="1.0" encoding="utf-8"?>
<!-- Generator: Adobe Illustrator 25.3.1, SVG Export Plug-In . SVG Version: 6.00 Build 0)  -->
<svg version="1.1" id="图层_1" xmlns="http://www.w3.org/2000/svg" xmlns:xlink="http://www.w3.org/1999/xlink" x="0px" y="0px"
	 viewBox="0 0 64 64" style="enable-background:new 0 0 64 64;" xml:space="preserve">
<style type="text/css">
	.st0{fill:#666666;}
</style>
<path class="st0" d="M45.5,45.7h-6.3c-0.1,0-0.4,0.1-0.5,0.3l-3.5,3.4c-1.6,1.6-4.3,1.6-6,0L25.6,46c-0.1-0.1-0.3-0.3-0.5-0.3h-6.3
	c-3.1,0-5.6-2.5-5.6-5.5V21c0-3,2.5-5.5,5.6-5.5h26.7c3.1,0,5.6,2.5,5.6,5.5v19.3C51.1,43.2,48.5,45.7,45.5,45.7L45.5,45.7z
	 M45.5,43c1.6,0,2.9-1.2,2.9-2.8V21c0-1.6-1.3-2.8-2.9-2.8H18.6c-1.6,0-2.9,1.2-2.9,2.8v19.3c0,1.6,1.3,2.8,2.9,2.8h6.3
	c0.9,0,1.8,0.4,2.5,1l3.5,3.4c0.5,0.5,1.4,0.5,2,0l3.5-3.4c0.7-0.7,1.6-1,2.5-1H45.5z M23.6,28.5c1.2,0,2.1,0.9,2.1,2.1V32
	c0,1.2-0.9,2.1-2.1,2.1c-1.2,0-2.1-0.9-2.1-2.1v-1.3C21.5,29.5,22.4,28.5,23.6,28.5z M32.1,28.5c1.2,0,2.1,0.9,2.1,2.1V32
	c0,1.2-0.9,2.1-2.1,2.1C30.9,34,30,33.1,30,32v-1.3C30,29.5,30.9,28.5,32.1,28.5z M40.5,28.5c1.2,0,2.1,0.9,2.1,2.1V32
	c0,1.2-0.9,2.1-2.1,2.1c-1.2,0-2.1-0.9-2.1-2.1v-1.3C38.4,29.5,39.3,28.5,40.5,28.5z"/>
</svg>
