<?xml version="1.0" encoding="utf-8"?>
<!-- Generator: Adobe Illustrator 25.3.1, SVG Export Plug-In . SVG Version: 6.00 Build 0)  -->
<svg version="1.1" id="图层_1" xmlns="http://www.w3.org/2000/svg" xmlns:xlink="http://www.w3.org/1999/xlink" x="0px" y="0px"
	 viewBox="0 0 64 64" style="enable-background:new 0 0 64 64;" xml:space="preserve">
<style type="text/css">
	.st0{fill:#666666;}
</style>
<path class="st0" d="M40.6,49.3c-0.5,0-1.1-0.1-1.6-0.4l-7.5-3.7L24,48.8c-0.5,0.3-1,0.4-1.6,0.4c-0.7,0-1.4-0.2-2-0.7
	c-1.1-0.8-1.6-2.2-1.3-3.4l1.5-8l-5.9-5.5c-0.9-0.9-1.3-2.3-0.9-3.5l0,0c0.4-1.3,1.5-2.2,2.8-2.4l8.2-1.5l3.7-7.5
	c0.6-1.2,1.8-1.9,3.1-1.9c1.3,0,2.6,0.8,3.1,2l3.7,7.5l8.2,1.4c1.3,0.2,2.4,1.1,2.7,2.4c0.4,1.2,0.1,2.6-0.9,3.5l0,0l-5.9,5.5l1.5,8
	c0.2,1.3-0.3,2.6-1.3,3.4C42.1,49,41.4,49.3,40.6,49.3z M31.5,42.9l8.4,4.2c0.2,0.1,0.5,0.2,0.7,0.2c0.3,0,0.6-0.1,0.8-0.3l0,0
	c0.5-0.4,0.7-0.9,0.6-1.5l-1.7-9.1l6.6-6.3c0.4-0.4,0.5-1,0.4-1.6l0-0.1c-0.1-0.5-0.6-0.9-1.1-1l0,0L37,26l-4.1-8.4
	c-0.2-0.5-0.7-0.8-1.3-0.8c-0.5,0-1.1,0.3-1.3,0.9L26.1,26l-9.2,1.7c-0.6,0.1-1,0.4-1.2,1c-0.1,0.5,0,1.2,0.4,1.6l6.7,6.2L21,45.5
	c-0.1,0.5,0.1,1.1,0.6,1.5c0.2,0.2,0.5,0.3,0.8,0.3c0.2,0,0.5-0.1,0.7-0.2l0,0C23.1,47.1,31.5,42.9,31.5,42.9z"/>
<path class="st0" d="M40.6,30.7C40.6,30.7,40.6,30.7,40.6,30.7l-6.1-1.1l-2.7-5.5c-0.1-0.2,0-0.5,0.2-0.6c0.2-0.1,0.5,0,0.6,0.2
	l2.5,5.1l5.6,1c0.2,0,0.4,0.3,0.4,0.5c0,0,0,0,0,0C41,30.6,40.8,30.7,40.6,30.7z"/>
</svg>
